<svg width="43" height="39" viewBox="0 0 43 39" fill="none" xmlns="http://www.w3.org/2000/svg">
<path d="M20.3815 7.3991C13.6718 7.41267 8.22496 12.8691 8.22498 19.5026C8.22496 26.136 13.6718 31.5862 20.3815 31.6007C24.7357 31.6089 28.5698 29.3322 30.7301 25.9015C30.7893 25.8069 30.8256 25.6998 30.8361 25.5888L31.8222 15.5211C31.8339 15.4097 31.8194 15.2972 31.7798 15.1924C30.0173 10.6276 25.57 7.38786 20.3814 7.3991H20.3815Z" fill="#FEBE40"/>
<path d="M26.3914 12.7977C23.375 12.7977 20.8956 15.2784 20.8956 18.2949C20.8956 18.4708 20.9654 18.6145 20.9826 18.7845C20.9783 18.7872 20.9769 18.786 20.9728 18.7899C19.9355 19.5368 19.0896 20.7443 18.6598 22.3219C18.6558 22.3378 18.6521 22.3537 18.6486 22.3697C18.628 22.4544 18.6137 22.5398 18.6024 22.6264C18.6002 22.6373 18.3568 24.1491 19.1845 25.676C20.0547 27.2813 22.0404 28.5045 24.7953 28.5291C24.7078 28.5236 26.3612 28.5668 28.448 28.5698C29.3301 27.7955 30.1024 26.9002 30.7302 25.9032C30.7895 25.8087 30.826 25.7016 30.8368 25.5904L31.8229 15.5218C31.8342 15.4105 31.8193 15.2981 31.7794 15.1936C31.4636 14.3755 31.0586 13.6024 30.5815 12.8805C30.1388 13.1419 29.7196 13.4433 29.3289 13.7811C28.4639 13.2147 27.4975 12.7992 26.3916 12.7992L26.3914 12.7977Z" fill="#EDA824"/>
<path d="M32.7401 14.3702C31.1804 14.3702 29.8008 15.1576 28.9696 16.3606C28.3357 15.5898 27.3783 15.0912 26.3031 15.0912C24.4091 15.0912 22.8566 16.6437 22.8566 18.5377C22.8566 18.9656 22.9438 19.3738 23.0895 19.7538C22.8377 19.8499 22.8312 20.1199 22.5776 20.3026C21.9433 20.7593 21.3723 21.5244 21.0655 22.6507C21.0584 22.6808 21.0532 22.7112 21.05 22.7419C21.05 22.7419 20.6658 23.5047 21.1607 24.4178C21.6557 25.3309 22.8348 26.1809 24.8933 26.1992C24.912 26.2 27.2361 26.2934 30.1633 26.2301C33.0689 26.1674 36.5137 25.9538 38.9736 25.3142C39.0017 25.3125 40.0458 25.2502 40.9515 24.5231C41.4103 24.1547 41.8328 23.589 41.9909 22.8328C42.149 22.0767 42.0532 21.1667 41.636 20.0808C41.6281 20.059 41.6191 20.0384 41.6094 20.0178C41.6094 20.0178 41.1985 19.1642 40.3049 18.559C39.858 18.2564 39.2636 18.0353 38.5711 18.0034V18.002C38.1645 17.983 37.7195 18.0411 37.254 18.1787C36.8819 16.0225 34.9993 14.3704 32.7401 14.3704L32.7401 14.3702Z" fill="#D0E2EE"/>
<path d="M20.4075 0.215566C20.0087 0.214127 19.685 0.537724 19.6865 0.936578V5.24708C19.6879 5.64371 20.0109 5.96403 20.4075 5.96246C20.8025 5.96175 21.1227 5.64208 21.1243 5.24708V2.37293V0.936578C21.1257 0.53938 20.8047 0.216326 20.4075 0.215566ZM25.6157 2.33926C25.5976 2.3395 25.5793 2.34071 25.561 2.34199C25.2542 2.36099 24.9942 2.57516 24.9144 2.87223L24.3575 4.94961C24.255 5.33313 24.4831 5.72703 24.8667 5.82909C25.2498 5.93169 25.6435 5.70423 25.7462 5.32134L26.3031 3.24251C26.4056 2.85902 26.1775 2.46509 25.7939 2.36303C25.7357 2.34674 25.6759 2.33859 25.6157 2.33859L25.6157 2.33926ZM15.181 2.34199C15.118 2.34218 15.0553 2.35014 14.9945 2.36643C14.6135 2.46903 14.3868 2.86 14.4867 3.24172L15.0422 5.32474C15.1442 5.70907 15.5391 5.93733 15.9231 5.83394C16.3067 5.73187 16.5348 5.33791 16.4322 4.95442L15.8754 2.8714C15.7904 2.55903 15.5057 2.34164 15.181 2.34215V2.34199ZM9.55758 3.07C9.54455 3.07057 9.53125 3.07142 9.5183 3.07269C9.41765 3.08084 9.32016 3.11286 9.23216 3.16253C8.88734 3.36014 8.76852 3.80014 8.96704 4.14444L11.1244 7.87562C11.322 8.22043 11.762 8.33927 12.1063 8.14082C12.4482 7.94131 12.5643 7.50282 12.3658 7.16032L10.2126 3.4279C10.0783 3.19582 9.82561 3.05769 9.55758 3.07021V3.07ZM31.1634 3.15847C30.92 3.16933 30.6987 3.30287 30.5757 3.51334L28.424 7.24593C28.2255 7.58841 28.3415 8.02695 28.6835 8.22643C29.026 8.42485 29.4645 8.30896 29.6639 7.96694L31.8227 4.23436C32.0203 3.89041 31.9016 3.45143 31.5576 3.2539C31.4558 3.19527 31.3412 3.16239 31.2238 3.15859C31.2037 3.15786 31.1835 3.15786 31.1634 3.15859L31.1634 3.15847ZM20.3809 7.39881C13.6712 7.41238 8.22499 12.8693 8.22501 19.5028C8.22499 26.1362 13.6712 31.5866 20.3809 31.6011C24.5988 31.6092 28.3251 29.4698 30.5182 26.2175C33.3481 26.1453 36.6105 25.9272 38.9737 25.3128C39.0018 25.3111 40.0459 25.25 40.9515 24.523C41.4104 24.1546 41.8328 23.5876 41.9909 22.8314C42.1647 21.7752 42.0387 20.9152 41.6094 20.0162C41.6094 20.0162 41.1987 19.1638 40.3049 18.5588C39.8579 18.2562 39.2637 18.0334 38.5711 18.0019C38.1644 17.9829 37.7196 18.0437 37.254 18.1829C36.8836 16.0247 35.0007 14.3704 32.7401 14.3704C32.3111 14.3704 31.8959 14.4344 31.5015 14.5457C29.5822 10.3261 25.3198 7.38826 20.3809 7.39893V7.39881ZM6.10974 7.56303C5.92571 7.56846 5.75096 7.6453 5.6216 7.77613C5.34026 8.05677 5.34026 8.5125 5.6216 8.79312L7.14914 10.315C7.42927 10.5936 7.88176 10.5936 8.16189 10.315C8.44416 10.0343 8.44416 9.57746 8.16189 9.29668L6.63996 7.77613C6.50033 7.63471 6.30837 7.5576 6.10974 7.56303ZM34.659 7.56303C34.4749 7.56846 34.3002 7.6453 34.1708 7.77613L32.6489 9.29668C32.3666 9.57746 32.3666 10.0343 32.6489 10.315C32.929 10.5936 33.3815 10.5936 33.6617 10.315L35.1892 8.79312C35.4705 8.5125 35.4705 8.05677 35.1892 7.77613C35.0496 7.63471 34.8576 7.5576 34.659 7.56303ZM20.3809 8.83528C24.7505 8.82714 28.5044 11.4266 30.1942 15.146C29.7113 15.4701 29.2941 15.8838 28.964 16.3622C28.3318 15.5882 27.3748 15.0914 26.3031 15.0914C24.4091 15.0914 22.8566 16.6438 22.8566 18.5378C22.8566 18.9684 22.9422 19.3793 23.0881 19.761C21.9331 20.0562 21.088 21.556 20.8157 22.5032C20.7386 23.3035 20.8533 23.8237 21.1608 24.418C21.6557 25.331 22.8348 26.1796 24.8933 26.198C24.9088 26.1986 26.5187 26.2583 28.7087 26.2458C26.7328 28.6412 23.7373 30.1715 20.3808 30.1649C14.4464 30.1513 9.66135 25.3511 9.66138 19.5029C9.66135 13.6548 14.4464 8.84812 20.3808 8.83536L20.3809 8.83528ZM1.61126 10.9463C1.36925 10.9599 1.15086 11.0965 1.03054 11.3068C0.832038 11.6493 0.948106 12.0879 1.29004 12.2873L5.02263 14.4391C5.36513 14.6375 5.80366 14.5216 6.00312 14.1796C6.20068 13.8356 6.08198 13.3967 5.73801 13.1991L2.01103 11.0418C1.90755 10.9823 1.79089 10.9495 1.67157 10.9465C1.65148 10.9456 1.63134 10.9456 1.61125 10.9465L1.61126 10.9463ZM24.9032 24.7616C23.1954 24.7453 22.6798 24.2068 22.4232 23.7334C21.913 22.6996 22.6506 21.4705 23.4093 21.1721C23.8566 20.9435 24.3311 20.9343 24.5693 20.9547C24.9644 20.9902 25.3136 20.699 25.3492 20.3038C25.3849 19.9082 25.0927 19.5587 24.697 19.5239C24.6557 19.5212 24.5965 19.5211 24.5483 19.5184C24.3862 19.2293 24.2944 18.8975 24.2944 18.538C24.2944 17.4203 25.1854 16.5293 26.3031 16.5293C27.2518 16.5293 28.0279 17.1809 28.2444 18.054C28.1857 18.346 28.1532 18.6486 28.1532 18.9574C28.1547 19.3518 28.4741 19.6712 28.8686 19.6728C29.2652 19.6743 29.588 19.354 29.5896 18.9574C29.5896 17.2091 30.9918 15.8083 32.7401 15.8083C34.4884 15.8083 35.8891 17.2091 35.8891 18.9574C35.8891 19.9373 35.4454 20.8013 34.7487 21.3799C34.4421 21.6328 34.3994 22.0868 34.6533 22.3926C34.9064 22.6992 35.3603 22.7419 35.6661 22.4879C36.4962 21.7986 37.0732 20.8146 37.2568 19.7035C38.3617 19.1784 38.9996 19.4151 39.4983 19.7527C40.0292 20.112 40.2859 20.6124 40.2992 20.6378C40.6256 21.5104 40.6707 22.133 40.5854 22.5412C40.4981 22.9586 40.3001 23.2041 40.0495 23.4053C39.5484 23.8076 38.8362 23.892 38.8362 23.892C35.8876 24.4907 32.816 24.7302 30.131 24.794C28.3884 24.8341 26.6451 24.8157 24.9031 24.7617L24.9032 24.7616ZM2.45148 18.7496C2.05265 18.748 1.72893 19.0718 1.73049 19.4706C1.73193 19.8673 2.05484 20.1876 2.45148 20.186H4.56115C4.95779 20.1876 5.2806 19.8673 5.28214 19.4706C5.28358 19.0718 4.95999 18.7481 4.56115 18.7496H2.45148ZM5.35087 24.4628C5.33866 24.4634 5.32645 24.4644 5.31439 24.4655C5.21141 24.4764 5.11187 24.5084 5.02263 24.5608L1.29003 26.7126C0.94809 26.9121 0.832025 27.3505 1.03054 27.693C1.22806 28.037 1.66707 28.1557 2.01103 27.9583L5.73801 25.8065C6.08199 25.6089 6.20068 25.1699 6.00313 24.8259C5.8707 24.5925 5.6191 24.4524 5.35087 24.4627V24.4628ZM7.67235 28.4773C7.65878 28.4774 7.64521 28.4779 7.63172 28.4788C7.45061 28.4842 7.27826 28.5578 7.14918 28.6851L5.62164 30.2126C5.34404 30.4925 5.34404 30.944 5.62164 31.2239C5.90241 31.5062 6.35923 31.5062 6.64 31.2239L8.16193 29.7035C8.4442 29.4227 8.4442 28.9658 8.16193 28.6851C8.03132 28.5559 7.85612 28.4815 7.67239 28.4774L7.67235 28.4773ZM33.1735 28.4773C33.1594 28.4774 33.1454 28.4779 33.1314 28.4788C32.9503 28.4842 32.778 28.5578 32.6489 28.6851C32.3666 28.9658 32.3666 29.4227 32.6489 29.7035L34.1708 31.2239C34.4516 31.5062 34.9084 31.5062 35.1892 31.2239C35.4668 30.944 35.4668 30.4925 35.1892 30.2126L33.6616 28.6851C33.5314 28.5561 33.3567 28.4817 33.1735 28.4774L33.1735 28.4773ZM29.0313 30.6768C28.909 30.6789 28.7893 30.7121 28.6835 30.7737C28.3415 30.9732 28.2255 31.4117 28.424 31.7542L30.5757 35.4868C30.7733 35.8316 31.2133 35.9504 31.5576 35.752C31.9016 35.5544 32.0203 35.1155 31.8227 34.7715L29.664 31.0389C29.5453 30.8307 29.3306 30.6956 29.0917 30.6784C29.071 30.6766 29.0499 30.6774 29.0313 30.677L29.0313 30.6768ZM11.7065 30.7637C11.464 30.7773 11.245 30.9133 11.1244 31.1242L8.96705 34.8553C8.76854 35.1996 8.88735 35.6397 9.23216 35.8373C9.57612 36.0349 10.0151 35.9162 10.2127 35.572L12.3658 31.8395C12.5643 31.497 12.4482 31.0584 12.1063 30.859C12.0028 30.7995 11.8862 30.7667 11.7669 30.7637C11.7468 30.7628 11.7266 30.7628 11.7065 30.7637ZM20.4075 33.0374C20.0087 33.0358 19.685 33.3596 19.6865 33.7584V36.6326V38.0634C19.6851 38.4622 20.0087 38.7858 20.4075 38.7843C20.8047 38.7835 21.1258 38.4606 21.1243 38.0634V33.7584C21.1257 33.3612 20.8047 33.0382 20.4075 33.0374ZM15.7435 33.1411C15.7272 33.1415 15.7108 33.1424 15.6944 33.1438C15.3854 33.1628 15.1226 33.3753 15.0421 33.674L14.4867 35.7571C14.3841 36.1402 14.6114 36.5339 14.9944 36.6366C15.3784 36.74 15.7733 36.5117 15.8753 36.1274L16.4322 34.0444C16.5347 33.6609 16.3066 33.267 15.923 33.1649C15.8644 33.1486 15.8041 33.1405 15.7435 33.1405L15.7435 33.1411ZM25.0519 33.1438C24.9892 33.1446 24.927 33.1547 24.8667 33.171C24.4831 33.2731 24.255 33.667 24.3575 34.0505L24.9144 36.1279C25.0165 36.5115 25.4104 36.7396 25.7939 36.6371C26.1775 36.535 26.4056 36.1411 26.3031 35.7576L25.7462 33.6787C25.6628 33.3637 25.3778 33.1443 25.0519 33.1443L25.0519 33.1438Z" fill="black"/>
</svg>
