<svg width="25" height="26" viewBox="0 0 25 26" fill="none" xmlns="http://www.w3.org/2000/svg">
<path d="M19.7268 15.8031C19.4506 16.0712 19.3287 16.4531 19.3937 16.8269L20.0518 20.6944C20.2306 21.7425 19.8081 22.7906 18.9468 23.4162C18.0775 24.05 16.9562 24.1231 16.0137 23.6275L12.5443 21.8075C12.3737 21.7181 12.1868 21.6775 12 21.6775C11.8131 21.6775 11.6262 21.7181 11.4556 21.8075L7.9862 23.6275C7.05264 24.1272 5.9192 24.0484 5.05308 23.4162C4.19183 22.7906 3.76933 21.7425 3.94808 20.6944L4.6062 16.8269C4.6712 16.4531 4.54933 16.0712 4.27308 15.8031L1.46995 13.065C0.706204 12.3175 0.429954 11.2287 0.763079 10.205C1.0962 9.18936 1.95745 8.46623 3.0137 8.31186L6.88933 7.75123C7.2712 7.69436 7.5962 7.45874 7.76683 7.11749L9.49745 3.59936C9.97683 2.64061 10.9356 2.04749 12 2.04749C13.0643 2.04749 14.0231 2.64061 14.4943 3.59936L16.2331 7.11749C16.4037 7.45874 16.7287 7.69436 17.1106 7.75123L20.9862 8.31186C22.0425 8.46623 22.9037 9.18936 23.2368 10.205C23.57 11.2287 23.2937 12.3175 22.53 13.065L19.7268 15.8031Z" fill="#FBC34E"/>
<g opacity="0.05">
<path d="M19.7269 15.8031C19.4506 16.0712 19.3288 16.4531 19.3938 16.8269L20.0519 20.6944C20.2306 21.7425 19.8081 22.7906 18.9469 23.4162C18.0775 24.05 16.9563 24.1231 16.0138 23.6275L12.5444 21.8075C12.3738 21.7181 12.1869 21.6775 12 21.6775V2.04749C13.0644 2.04749 14.0231 2.64061 14.4944 3.59936L16.2331 7.11749C16.4037 7.45874 16.7288 7.69436 17.1106 7.75123L20.9862 8.31186C22.0425 8.46623 22.9037 9.18936 23.2369 10.205C23.57 11.2287 23.2937 12.3175 22.53 13.065L19.7269 15.8031Z" fill="black"/>
</g>
</svg>
